<?xml version="1.0" standalone="no"?>
<!DOCTYPE svg PUBLIC "-//W3C//DTD SVG 20010904//EN"
 "http://www.w3.org/TR/2001/REC-SVG-20010904/DTD/svg10.dtd">
<svg version="1.0" xmlns="http://www.w3.org/2000/svg"
 width="260.000000pt" height="260.000000pt" viewBox="0 0 260.000000 260.000000"
 preserveAspectRatio="xMidYMid meet">
<metadata>
Created by potrace 1.11, written by Peter Selinger 2001-2013
</metadata>
<g transform="translate(0.000000,260.000000) scale(0.100000,-0.100000)"
fill="#000000" stroke="none">
<path d="M1230 2593 c-40 -12 -102 -42 -175 -84 -44 -25 -215 -124 -379 -219
-165 -95 -315 -181 -334 -191 -68 -39 -88 -54 -125 -93 -20 -23 -47 -61 -60
-86 l-22 -45 0 -575 0 -575 23 -46 c39 -79 90 -125 213 -193 l66 -36 0 656 c0
647 0 656 21 676 11 11 31 21 45 21 13 -1 197 -98 411 -218 l386 -217 182 103
c101 57 200 112 220 123 70 40 283 161 303 173 68 41 111 45 137 13 17 -21 18
-60 18 -677 l0 -655 48 27 c105 60 170 110 200 154 60 88 60 87 58 688 l-1
548 -26 55 c-15 30 -44 72 -66 93 -21 22 -166 112 -323 203 -157 90 -292 168
-300 173 -21 14 -310 176 -340 192 -25 12 -151 21 -180 12z"/>
<path d="M900 406 c0 -130 4 -236 9 -236 4 0 66 -34 137 -75 163 -94 240 -112
353 -79 21 6 143 72 202 109 9 5 34 20 57 32 l40 22 -1 230 0 230 -21 -11
c-12 -6 -101 -56 -199 -110 l-178 -98 -42 23 c-59 33 -151 83 -227 125 -36 19
-80 44 -97 54 l-33 20 0 -236z"/>
</g>
</svg>
